<svg height="200" viewBox="0 0 200 200" width="200" xmlns="http://www.w3.org/2000/svg" xmlns:xlink="http://www.w3.org/1999/xlink"><filter id="a" color-interpolation-filters="sRGB"><feFlood flood-opacity=".470588" result="flood"/><feComposite in="flood" in2="SourceGraphic" operator="in" result="composite1"/><feGaussianBlur in="composite1" result="blur" stdDeviation="1"/><feOffset dx="0" dy="2" result="offset"/><feComposite in="SourceGraphic" in2="offset" operator="over" result="fbSourceGraphic"/><feColorMatrix in="fbSourceGraphic" result="fbSourceGraphicAlpha" values="0 0 0 -1 0 0 0 0 -1 0 0 0 0 -1 0 0 0 0 1 0"/><feFlood flood-opacity=".470588" in="fbSourceGraphic" result="flood"/><feComposite in="fbSourceGraphic" in2="flood" operator="in" result="composite1"/><feGaussianBlur in="composite1" result="blur" stdDeviation="2"/><feOffset dx="0" dy="-2" result="offset"/><feComposite in="fbSourceGraphic" in2="offset" operator="over" result="composite2"/></filter><filter id="b" color-interpolation-filters="sRGB"><feFlood flood-opacity=".470588" result="flood"/><feComposite in="flood" in2="SourceGraphic" operator="in" result="composite1"/><feGaussianBlur in="composite1" result="blur" stdDeviation="1"/><feOffset dx="2" dy="0" result="offset"/><feComposite in="SourceGraphic" in2="offset" operator="over" result="composite2"/></filter><linearGradient id="c" gradientUnits="userSpaceOnUse" x1="195.91592" x2="195.91592" y1="134.84717" y2="175.40294"><stop offset="0" stop-color="#dae70b"/><stop offset="1" stop-color="#38a943"/></linearGradient><linearGradient id="d" gradientUnits="userSpaceOnUse" x1="187.49425" x2="187.49425" y1="138.27087" y2="93.864723"><stop offset="0" stop-color="#ff8063"/><stop offset="1" stop-color="#f44158"/></linearGradient><linearGradient id="e" gradientUnits="userSpaceOnUse" x1="221.10437" x2="221.10437" y1="113.68792" y2="61.850105"><stop offset="0" stop-color="#ff526e"/><stop offset="1" stop-color="#fa445a"/></linearGradient><linearGradient id="f" gradientUnits="userSpaceOnUse" x1="184.92923" x2="184.92923" y1="116.21777" y2="63.739151"><stop offset="0" stop-color="#ff8387"/><stop offset="1" stop-color="#ff626c"/></linearGradient><linearGradient id="g" gradientUnits="userSpaceOnUse" x1="197.99219" x2="197.99219" y1="73.906311" y2="-.807982"><stop offset="0" stop-color="#d02038"/><stop offset="1" stop-color="#7d113d"/></linearGradient><filter id="h" color-interpolation-filters="sRGB" height="1.389037" width="1.26043" x="-.130215" y="-.194519"><feGaussianBlur stdDeviation="6.0540712"/></filter><filter id="i" color-interpolation-filters="sRGB" height="1.529689" width="1.354585" x="-.177293" y="-.264844"><feGaussianBlur stdDeviation="8.2428508"/></filter><g transform="translate(-99.252153 13.295218)"><path d="m197.99218-.8079822a93.687317 93.687317 0 0 0 -93.6875 93.6875032 93.687317 93.687317 0 0 0 18.94922 56.345699h149.4414a93.687317 93.687317 0 0 0 18.98438-56.345699 93.687317 93.687317 0 0 0 -93.6875-93.6875032z" fill="#640e45" filter="url(#b)"/><path d="m17.916016 52.859375a93.687317 93.687317 0 0 0 -15.0625004 50.916015 93.687317 93.687317 0 0 0 18.9492184 56.3457h149.441406a93.687317 93.687317 0 0 0 18.98438-56.3457 93.687317 93.687317 0 0 0 -12.62305-46.794921c-34.9869 9.048736-60.44322 28.081494-81.48047 51.744141.90283-.37359-25.02868-37.018304-81.375-50.250001 1.057163-1.91566 2.11202-3.779005 3.166016-5.615234z" fill="#3d0d57" transform="translate(101.45213 -10.895255)"/><g fill="#ff003c" filter="url(#h)" opacity=".828877" transform="matrix(1.1108144 0 0 1.1108144 -22.482814 -15.226166)"><path d="m198.35263 67.289189c-.0517-.129388 25.32583 31.952992 25.32583 31.952992l-50.43012.14639z"/><path d="m236.54813 62.708835c-8.67253 24.877804-14.21782 49.130165-14.6209 72.354075h-40.0587c10.33392-33.72447 28.18634-62.501151 54.6796-72.354075z" opacity="1"/><path d="m160.20889 63.718065c27.7568 9.598177 37.52727 34.569806 47.88413 55.093645l-35.54046-.62107c-2.16262-18.564179-3.77338-37.243328-12.34367-54.472575z" opacity="1"/><path d="m144.4468 93.825881c13.03889 15.926959 24.42946 28.663489 27.99641 43.561439l55.55973.0116c-22.28113-18.08757-43.70036-33.74854-83.55614-43.573039z"/><path d="m184.83892 137.40492 43.16402-.006c4.50319-16.22035 18.4444-27.5723 28.02689-43.143089-28.39756 8.372409-67.08593 18.999959-71.19091 43.148839z" opacity="1"/></g><g fill="#ff003c" filter="url(#i)" transform="matrix(.93839151 0 0 .93839151 8.673569 4.12318)"><path d="m198.35263 67.289189c-.0517-.129388 25.32583 31.952992 25.32583 31.952992l-50.43012.14639z"/><path d="m236.54813 62.708835c-8.67253 24.877804-14.21782 49.130165-14.6209 72.354075h-40.0587c10.33392-33.72447 28.18634-62.501151 54.6796-72.354075z"/><path d="m160.20889 63.718065c27.7568 9.598177 37.52727 34.569806 47.88413 55.093645l-35.54046-.62107c-2.16262-18.564179-3.77338-37.243328-12.34367-54.472575z"/><path d="m144.4468 93.825881c13.03889 15.926959 24.42946 28.663489 27.99641 43.561439l55.55973.0116c-22.28113-18.08757-43.70036-33.74854-83.55614-43.573039z"/><path d="m184.83892 137.40492 43.16402-.006c4.50319-16.22035 18.4444-27.5723 28.02689-43.143089-28.39756 8.372409-67.08593 18.999959-71.19091 43.148839z"/></g><path d="m198.32576 73.865797c-11.04897-21.625978-21.32025-44.039104-46.35969-62.601047 28.11946-15.182163 59.58192-19.1664624 91.27485-.409358-22.57162 15.272409-34.87284 39.684129-44.91516 63.010405z" fill="url(#g)"/><ellipse cx="199.25215" cy="154.90781" fill="url(#c)" filter="url(#a)" rx="97.800018" ry="20.209707"/><path d="m198.35263 67.289189c-.0517-.129388 25.32583 31.952992 25.32583 31.952992l-50.43012.14639z" fill="#ffbab6"/><path d="m236.54813 62.708835c-8.67253 24.877804-14.21782 49.130165-14.6209 72.354075h-40.0587c10.33392-33.72447 28.18634-62.501151 54.6796-72.354075z" fill="url(#e)"/><path d="m160.20889 63.718065c27.7568 9.598177 37.52727 34.569806 47.88413 55.093645l-35.54046-.62107c-2.16262-18.564179-3.77338-37.243328-12.34367-54.472575z" fill="url(#f)"/><path d="m144.4468 93.825881c13.03889 15.926959 24.42946 28.663489 27.99641 43.561439l55.55973.0116c-22.28113-18.08757-43.70036-33.74854-83.55614-43.573039z" fill="url(#d)"/><path d="m184.83892 137.40492 43.16402-.006c4.50319-16.22035 18.4444-27.5723 28.02689-43.143089-28.39756 8.372409-67.08593 18.999959-71.19091 43.148839z" fill="#f43a38"/></g></svg>